# xmcd
#
# Track frame offsets:
# 150
# 11578
# 24058
# 41456
# 52154
# 69743
# 87951
# 104346
# 120510
# 134253
# 147828
# 162195
# 173623
# 188842
# 204431
# 220417
# 236392
# 248248
# 263803
# 285955
# 302395
# 317234
# 330981
#
# Disc length: 4570 seconds
#
#
# Revision: 0
# Processed by: cddbd v1.5.2PL0 Copyright (c) Steve Scherf et al.
# Submitted via: FreeRIP 2.96 
#
DISCID=3511d817
DTITLE=varios - anos 70/80
DYEAR=2007
DGENRE=A Cappella
TTITLE0=7080
TTITLE1=7080
TTITLE2=7080
TTITLE3=7080
TTITLE4=7080
TTITLE5=7080
TTITLE6=7080
TTITLE7=7080
TTITLE8=7080
TTITLE9=7080
TTITLE10=7080
TTITLE11=7080
TTITLE12=7080
TTITLE13=7080
TTITLE14=7090
TTITLE15=7080
TTITLE16=7080
TTITLE17=7080
TTITLE18=7090
TTITLE19=7080
TTITLE20=7080
TTITLE21=7080
TTITLE22=7080
EXTD=
EXTT0=
EXTT1=
EXTT2=
EXTT3=
EXTT4=
EXTT5=
EXTT6=
EXTT7=
EXTT8=
EXTT9=
EXTT10=
EXTT11=
EXTT12=
EXTT13=
EXTT14=
EXTT15=
EXTT16=
EXTT17=
EXTT18=
EXTT19=
EXTT20=
EXTT21=
EXTT22=
PLAYORDER=
